# xmcd CD database file
#
# Track frame offsets:
#	187
#	35312
#	59537
#	81357
#	103492
#	134704
#	162642
#	195277
#	217332
#	244174
#	268484
#	283949
#	311089
#
# Disc length: 4476 seconds
#
# Revision: 0
# Processed by: cddbd v1.5.1PL0 Copyright (c) Steve Scherf et al.
# Submitted via: CDex 1.51
#
DISCID=dc117a0d
DTITLE=Dave Weckl Band - Synergy
DYEAR=1999
DGENRE=Jazz
TTITLE0=High Life
TTITLE1=Panda's Dream
TTITLE2=Swunk
TTITLE3=A Simple Prayer
TTITLE4=Cape Fear
TTITLE5=Wet Skin
TTITLE6=Synergy
TTITLE7=Where's My Paradise?
TTITLE8=Lucky Seven
TTITLE9=Swamp Thing
TTITLE10=Cultural Concurrence
TTITLE11=Tower '99
TTITLE12=Isolated Incident
EXTD=YEAR: 1999
EXTT0=
EXTT1=
EXTT2=
EXTT3=
EXTT4=
EXTT5=
EXTT6=
EXTT7=
EXTT8=
EXTT9=
EXTT10=
EXTT11=
EXTT12=
PLAYORDER=
